<svg xmlns="http://www.w3.org/2000/svg" version="1.1" xmlns:xlink="http://www.w3.org/1999/xlink" xmlns:svgjs="http://svgjs.dev/svgjs" width="1000" height="1000" viewBox="0 0 1000 1000"><g transform="matrix(1,0,0,1,0.39528023598796835,0.39528023598808204)"><svg viewBox="0 0 339 339" data-background-color="#ffffff" preserveAspectRatio="xMidYMid meet" height="1000" width="1000" xmlns="http://www.w3.org/2000/svg" xmlns:xlink="http://www.w3.org/1999/xlink"><defs></defs><g id="tight-bounds" transform="matrix(1,0,0,1,-0.1339999999999293,-0.1339999999999577)"><svg viewBox="0 0 339.26755335890886 339.26755335890886" height="339.26755335890886" width="339.26755335890886"><g><svg></svg></g><g><svg viewBox="0 0 339.26755335890886 339.26755335890886" height="339.26755335890886" width="339.26755335890886"><g><path d="M0 169.634c0-93.686 75.948-169.634 169.634-169.634 93.686 0 169.634 75.948 169.634 169.634 0 93.686-75.948 169.634-169.634 169.634-93.686 0-169.634-75.948-169.634-169.634zM169.634 335.464c91.585 0 165.83-74.245 165.83-165.83 0-91.585-74.245-165.83-165.83-165.83-91.585 0-165.83 74.245-165.83 165.83 0 91.585 74.245 165.83 165.83 165.83z" data-fill-palette-color="tertiary" fill="#0b467b" stroke="transparent"></path><ellipse rx="162.84842561227626" ry="162.84842561227626" cx="169.63377667945443" cy="169.63377667945443" fill="#0b467b" stroke="transparent" stroke-width="0" fill-opacity="1" data-fill-palette-color="tertiary"></ellipse></g><g transform="matrix(1,0,0,1,64.3216932416893,73.85455606587587)"><svg viewBox="0 0 210.62416687553025 191.55844122715712" height="191.55844122715712" width="210.62416687553025"><g><svg viewBox="0 0 210.62416687553025 191.55844122715712" height="191.55844122715712" width="210.62416687553025"><g><svg viewBox="0 0 213.1584412271571 193.86331275088162" height="191.55844122715712" width="210.62416687553025"><g transform="matrix(1,0,0,1,0,116.7069660469536)"><svg viewBox="0 0 213.1584412271571 77.15634670392804" height="77.15634670392804" width="213.1584412271571"><g><svg viewBox="0 0 213.1584412271571 77.15634670392804" height="77.15634670392804" width="213.1584412271571"><g><svg viewBox="0 0 213.1584412271571 42.68496120793742" height="42.68496120793742" width="213.1584412271571"><g transform="matrix(1,0,0,1,0,0)"><svg width="213.1584412271571" viewBox="2.2 -31.55 160.04000000000002 32.05" height="42.68496120793742" data-palette-color="#ffffff"><path d="M18.5-6.95L18 0 2.2 0 2.2-31.05 10.75-31.05 10.75-6.95 18.5-6.95ZM42.95-31.05L42.95 0 34.75 0 28.3-14.45 27.9-14.45 27.9 0 20.3 0 20.3-31.05 28.75-31.05 34.9-16.15 35.3-16.15 35.3-31.05 42.95-31.05ZM76.34-31.05L77.4 0 69.55 0 69.55-16.2 69.09-16.2 66.15 0 58.1 0 55.3-16.2 54.8-16.2 54.8 0 47.05 0 48.1-31.05 59.35-31.05 62.15-14.25 62.55-14.25 65.25-31.05 76.34-31.05ZM113.84-8.95L113.84-8.95Q113.84 0 104.24 0L104.24 0 91.99 0 91.99-31.05 103.99-31.05Q108.74-31.05 111.04-29.13 113.34-27.2 113.34-23 113.34-18.8 109.89-16.6L109.89-16.6 109.89-16.3Q113.84-14.75 113.84-8.95ZM102.24-5.55Q103.74-5.55 104.27-6.23 104.79-6.9 104.79-9.03 104.79-11.15 104.24-12.03 103.69-12.9 102.24-12.9L102.24-12.9 100.64-12.9 100.64-5.55 102.24-5.55ZM102.29-17.75Q103.44-17.75 103.89-18.45 104.34-19.15 104.34-20.93 104.34-22.7 103.87-23.43 103.39-24.15 102.24-24.15L102.24-24.15 100.64-24.15 100.64-17.75 102.29-17.75ZM125.49-10.2Q125.49-8.65 126.14-7.9 126.79-7.15 128.26-7.15 129.74-7.15 130.31-7.88 130.89-8.6 130.89-10.25L130.89-10.25 130.89-31.05 139.49-31.05 139.49-9.75Q139.49-4.4 136.56-1.95 133.64 0.5 127.96 0.5 122.29 0.5 119.51-1.93 116.74-4.35 116.74-9.65L116.74-9.65 116.74-31.05 125.49-31.05 125.49-10.2ZM142.49-21.7Q142.49-26.15 145.09-28.85 147.69-31.55 152.21-31.55 156.74-31.55 161.49-30.65L161.49-30.65 160.49-22.65Q155.53-23.8 153.69-23.8L153.69-23.8Q151.34-23.8 151.34-21.9L151.34-21.9Q151.34-21.15 152.46-20.45 153.59-19.75 155.19-18.98 156.78-18.2 158.38-17.13 159.99-16.05 161.11-14.05 162.24-12.05 162.24-9.45L162.24-9.45Q162.24-4.7 159.69-2.1 157.13 0.5 152.46 0.5 147.78 0.5 143.34-0.95L143.34-0.95 143.88-8.4Q149.24-6.85 151.34-6.85 153.44-6.85 153.44-8.7L153.44-8.7Q153.44-9.65 152.31-10.45 151.19-11.25 149.59-12.05 147.99-12.85 146.36-13.9 144.74-14.95 143.61-16.95 142.49-18.95 142.49-21.7L142.49-21.7Z" opacity="1" transform="matrix(1,0,0,1,0,0)" fill="#ffffff" class="undefined-text-0" data-fill-palette-color="quaternary" id="text-0"></path></svg></g></svg></g><g transform="matrix(1,0,0,1,0,52.76185611006245)"><svg viewBox="0 0 213.1584412271571 24.39449059386558" height="24.39449059386558" width="213.1584412271571"><g transform="matrix(1,0,0,1,0,0)"><svg width="213.1584412271571" viewBox="3.5 -29.5 345.12 39.5" height="24.39449059386558" data-palette-color="#ffffff"><path d="M6.2-3.05Q3.5-6.6 3.5-14.5 3.5-22.4 6.2-25.95 8.9-29.5 15.15-29.5 21.4-29.5 24.15-26.05L24.15-26.05 23.05-25.05Q20.85-28 15.15-28L15.15-28Q12.65-28 10.95-27.48 9.25-26.95 7.83-25.53 6.4-24.1 5.7-21.38 5-18.65 5-14.5 5-10.35 5.7-7.63 6.4-4.9 7.83-3.48 9.25-2.05 10.95-1.53 12.65-1 15.15-1L15.15-1Q20.85-1 23.05-3.95L23.05-3.95 24.15-2.95Q21.4 0.5 15.15 0.5 8.9 0.5 6.2-3.05ZM33.1-1.5L48.3-1.5 48.3 0 31.6 0 31.6-29 33.1-29 33.1-1.5ZM54.05 0L54.05-29 55.55-29 55.55 0 54.05 0ZM66.49-3.05Q63.79-6.6 63.79-14.5 63.79-22.4 66.49-25.95 69.19-29.5 75.44-29.5 81.69-29.5 84.44-26.05L84.44-26.05 83.34-25.05Q81.14-28 75.44-28L75.44-28Q72.94-28 71.24-27.48 69.54-26.95 68.12-25.53 66.69-24.1 65.99-21.38 65.29-18.65 65.29-14.5 65.29-10.35 65.99-7.63 66.69-4.9 68.12-3.48 69.54-2.05 71.24-1.53 72.94-1 75.44-1L75.44-1Q81.14-1 83.34-3.95L83.34-3.95 84.44-2.95Q81.69 0.5 75.44 0.5 69.19 0.5 66.49-3.05ZM93.39 0L91.89 0 91.89-29 93.39-29 93.39 0ZM112.54 0L110.39 0 94.99-15.3 108.79-29 110.94-29 97.14-15.3 112.54 0ZM135.04 0L135.04-1.5 151.34-1.5 141.09-25.65 130.19 0 128.59 0 141.09-29.5 153.59 0 135.04 0ZM160.78 0L159.28 0 159.28-29 160.78-29 177.08-2.75 177.08-29 178.58-29 178.58 0 177.08 0 160.78-26.3 160.78 0ZM191.88 0L191.88 0 188.08 0 188.08-29 191.88-29Q199.28-29 203.68-25.1 208.08-21.2 208.08-14.5 208.08-7.8 203.68-3.9 199.28 0 191.88 0ZM189.58-1.5L191.88-1.5Q198.63-1.5 202.61-4.95 206.58-8.4 206.58-14.5 206.58-20.6 202.61-24.05 198.63-27.5 191.88-27.5L191.88-27.5 189.58-27.5 189.58-1.5ZM239.48 0.45L239.48 0.45Q234.03 0.1 231.65-3.48 229.28-7.05 229.28-14.5L229.28-14.5Q229.28-22.4 232-25.95 234.73-29.5 240.93-29.5 247.13-29.5 249.85-25.95 252.58-22.4 252.58-14.5L252.58-14.5Q252.58-4.5 248.03-1.3L248.03-1.3 247.18-2.5Q251.08-5.15 251.08-14.5L251.08-14.5Q251.08-18.65 250.38-21.38 249.68-24.1 248.25-25.53 246.83-26.95 245.13-27.48 243.43-28 240.93-28 238.43-28 236.73-27.48 235.03-26.95 233.6-25.53 232.18-24.1 231.48-21.38 230.78-18.65 230.78-14.5 230.78-10.35 231.48-7.63 232.18-4.9 233.6-3.48 235.03-2.05 236.73-1.53 238.43-1 240.93-1L240.93-1Q240.93 4.55 242.7 6.53 244.48 8.5 248.23 8.5L248.23 8.5 248.23 10Q244.18 10 241.98 8 239.78 6 239.48 0.45ZM260.32-29L261.82-29 261.82-14.5Q261.82-7.05 264.2-4.03 266.57-1 270.72-1 274.87-1 277.25-4.03 279.62-7.05 279.62-14.5L279.62-14.5 279.62-29 281.12-29 281.12-14.5Q281.12 0.5 270.72 0.5 260.32 0.5 260.32-14.5L260.32-14.5 260.32-29ZM290.12 0L290.12-29 291.62-29 291.62 0 290.12 0ZM302.57-3.05Q299.87-6.6 299.87-14.5 299.87-22.4 302.57-25.95 305.27-29.5 311.52-29.5 317.77-29.5 320.52-26.05L320.52-26.05 319.42-25.05Q317.22-28 311.52-28L311.52-28Q309.02-28 307.32-27.48 305.62-26.95 304.19-25.53 302.77-24.1 302.07-21.38 301.37-18.65 301.37-14.5 301.37-10.35 302.07-7.63 302.77-4.9 304.19-3.48 305.62-2.05 307.32-1.53 309.02-1 311.52-1L311.52-1Q317.22-1 319.42-3.95L319.42-3.95 320.52-2.95Q317.77 0.5 311.52 0.5 305.27 0.5 302.57-3.05ZM329.47 0L327.97 0 327.97-29 329.47-29 329.47 0ZM348.62 0L346.47 0 331.07-15.3 344.87-29 347.02-29 333.22-15.3 348.62 0Z" opacity="1" transform="matrix(1,0,0,1,0,0)" fill="#ffffff" class="undefined-text-1" data-fill-palette-color="quaternary" id="text-1"></path></svg></g></svg></g></svg></g></svg></g><g transform="matrix(1,0,0,1,53.78260312507031,0)"><svg viewBox="0 0 105.5932349770165 106.63007114482856" height="106.63007114482856" width="105.5932349770165"><g><svg xmlns="http://www.w3.org/2000/svg" xmlns:xlink="http://www.w3.org/1999/xlink" version="1.1" x="0" y="0" viewBox="0.48472724944622936 0 99.02763248989696 100" enable-background="new 0 0 100 100" xml:space="preserve" height="106.63007114482856" width="105.5932349770165" class="icon-icon-0" data-fill-palette-color="quaternary" id="icon-0"><path d="M32.063 78.226c-2.024 0-3.661 1.64-3.661 3.664 0 2.021 1.636 3.66 3.661 3.66 2.023 0 3.66-1.64 3.66-3.66C35.722 79.865 34.086 78.226 32.063 78.226" fill="#ffffff" data-fill-palette-color="quaternary"></path><path d="M23.109 79.005c-1.593 0-2.881 1.292-2.881 2.881 0 1.593 1.289 2.882 2.881 2.882 1.589 0 2.877-1.289 2.877-2.882C25.986 80.297 24.698 79.005 23.109 79.005" fill="#ffffff" data-fill-palette-color="quaternary"></path><path d="M67.938 85.55c2.024 0 3.665-1.64 3.665-3.664 0-2.021-1.641-3.66-3.665-3.66-2.02 0-3.66 1.64-3.66 3.66C64.277 83.91 65.918 85.55 67.938 85.55" fill="#ffffff" data-fill-palette-color="quaternary"></path><path d="M76.896 84.768c1.589 0 2.881-1.289 2.881-2.878 0-1.593-1.292-2.885-2.881-2.885-1.594 0-2.881 1.292-2.881 2.885C74.015 83.479 75.302 84.768 76.896 84.768" fill="#ffffff" data-fill-palette-color="quaternary"></path><path d="M96.306 16.556c-0.682-2.45-2.797-4.162-5.133-4.162-0.208 0-0.411 0.03-0.614 0.058-0.044-0.325-0.079-0.65-0.126-0.975-0.207-1.535-1.397-2.755-2.929-2.999-1.3-0.207-2.606-0.403-3.906-0.591C77.987 3.952 64.826 0 50 0h-0.122-0.109C34.948 0 21.782 3.952 16.175 7.887c-1.308 0.188-2.618 0.386-3.911 0.591-1.531 0.244-2.721 1.464-2.928 2.999-0.043 0.317-0.078 0.634-0.121 0.953-0.129-0.01-0.255-0.036-0.388-0.036-2.337 0-4.447 1.712-5.133 4.162-2.149 7.688-3.229 15.665-3.209 23.715 0.003 3.308 2.411 6.001 5.367 6.001h0.07c0.349-0.004 0.701-0.016 1.05-0.02-0.02 13.605 1.01 27.221 3.108 40.734 0.227 1.473 1.362 2.643 2.83 2.918 1.061 0.195 2.125 0.376 3.187 0.556v6.26c0 1.813 1.468 3.28 3.281 3.28h5.743c1.809 0 3.281-1.467 3.281-3.28v-4.553c7.172 0.775 14.355 1.179 21.484 1.179 7.204 0 14.461-0.411 21.716-1.203v4.577c0 1.813 1.468 3.28 3.28 3.28h5.738c1.813 0 3.282-1.467 3.282-3.28v-6.299c0.986-0.169 1.972-0.333 2.956-0.517 1.468-0.275 2.602-1.445 2.829-2.918 2.1-13.514 3.129-27.129 3.108-40.738 0.427 0.008 0.857 0.02 1.28 0.023h0.07c2.956 0 5.364-2.693 5.367-6.001C99.535 32.221 98.455 24.243 96.306 16.556M12.82 11.95c1.578-0.253 3.16-0.487 4.741-0.709 4.205-3.452 17.131-7.726 32.208-7.726h0.117H50c15.072 0 28.007 4.273 32.207 7.726 1.582 0.222 3.164 0.456 4.745 0.709 0.071 0.524 0.129 1.053 0.2 1.579-0.627 0.222-1.246 0.448-1.872 0.664-0.959 0.341-1.761 0.93-2.372 1.67-9.595-3.709-20.902-5.859-33.022-5.859-12.05 0-23.289 2.126-32.849 5.795-0.604-0.709-1.386-1.276-2.318-1.605-0.701-0.242-1.394-0.495-2.09-0.744C12.695 12.95 12.75 12.451 12.82 11.95M16.978 24.2h66.043l0.415 2.606c-0.09 0.02-0.18 0.029-0.273 0.029H16.837c-0.093 0-0.184-0.01-0.274-0.029L16.978 24.2zM10.362 42.674c-1.488 0.043-2.979 0.066-4.486 0.082H5.853C4.979 42.756 4 41.69 4 40.262c-0.016-7.726 1.018-15.385 3.081-22.76 0.263-0.937 0.979-1.593 1.747-1.593 0.157 0 0.313 0.03 0.477 0.091 1.421 0.519 2.843 1.023 4.256 1.509 0.959 0.341 1.496 1.397 1.217 2.404-1.848 6.71-2.76 13.672-2.705 20.698C12.081 41.715 11.305 42.643 10.362 42.674M86.217 86.446c-12.113 2.256-24.223 3.384-36.331 3.384-12.112 0-24.221-1.128-36.333-3.384-0.795-5.132-1.429-10.263-1.918-15.396h6.636c1.667 0 3.762-1.064 4.419-2.624 1.472-3.495-1.312-8.632-2.888-11.627-2.071-3.926-4.452-7.705-6.28-11.753 1.061-0.855 1.793-2.122 2-3.578 6.91 15.915 20.984 29.582 34.615 29.582 16.474 0 33.166-7.066 38.733-9.653C88.393 69.746 87.512 78.097 86.217 86.446M94.147 42.756h-0.019c-1.512-0.016-3.004-0.039-4.492-0.082-0.942-0.031-1.714-0.959-1.709-2.063 0.055-7.026-0.858-13.988-2.706-20.698-0.274-1.007 0.259-2.063 1.218-2.404 1.413-0.485 2.838-0.99 4.26-1.509 0.16-0.061 0.316-0.091 0.474-0.091 0.768 0 1.488 0.656 1.746 1.593 2.063 7.375 3.101 15.034 3.08 22.76C95.999 41.69 95.021 42.756 94.147 42.756" fill="#ffffff" data-fill-palette-color="quaternary"></path></svg><g></g></g></svg></g><g></g></svg></g></svg></g></svg></g></svg></g></svg><rect width="339.26755335890886" height="339.26755335890886" fill="none" stroke="none" visibility="hidden"></rect></g></svg></g></svg>